<?xml version='1.0' encoding='utf-8'?>
<svg xmlns="http://www.w3.org/2000/svg" xmlns:xlink="http://www.w3.org/1999/xlink" enable-background="new 0 0 841.89 841" version="1.1" viewBox="0 0 841.89 841">
<path d="m230 348c-1.061-0.866-2.383-1.347-3.723-1.534-1.346-0.187-2.714-0.121-4.055 0.073-2.688 0.4-5.284 1.265-7.796 2.289-5.016 2.089-9.773 4.782-14.277 7.81-1.131 0.774-2.216 1.526-3.269 2.405-1.007 0.859-1.935 1.829-2.752 2.885-1.652 2.106-2.833 4.566-4.394 6.863-0.777 1.147-1.658 2.242-2.646 3.232-1.039 1.003-2.193 1.797-3.395 2.504-2.4 1.406-4.938 2.444-7.227 3.808-2.287 1.336-4.299 3.122-5.261 5.495l-0.094 0.218-0.072 0.213c-0.063 0.169-0.105 0.319-0.133 0.45-0.072 0.264-0.128 0.593-0.165 0.899-0.077 0.625-0.096 1.27-0.064 1.919 0.055 1.3 0.256 2.615 0.536 3.916 0.568 2.604 1.417 5.167 2.425 7.656 1 2.483 2.207 4.911 3.696 7.073 1.489 2.183 3.324 4.085 5.481 5.571 1.075 0.747 2.221 1.397 3.412 1.971 0.298 0.134 0.618 0.311 0.827 0.375 0.27 0.09 0.593 0.174 0.91 0.253 0.64 0.158 1.299 0.3 1.959 0.436 2.646 0.54 5.328 1.003 8.006 1.435 1.34 0.213 2.682 0.417 4.021 0.601l2.002 0.251 0.982 0.094 0.459 0.025h0.179c0.031 0 0.019-3e-3 0.018 0-0.037 5e-3 -0.066 0.011-0.119 0.03-0.096 0.031-0.192 0.083-0.271 0.147-0.031-0.045-0.499 0.548-0.379 0.875l1.38-1.059c2.744 0.98 5.403 2.324 7.742 4.156 2.33 1.838 4.287 4.145 5.785 6.675 3.017 5.091 4.319 10.761 6.363 15.88 0.511 1.282 1.071 2.53 1.717 3.717l2.001 3.755c1.323 2.523 2.579 5.068 3.788 7.645 2.425 5.144 4.646 10.393 6.567 15.763 1.933 5.349 3.538 10.899 4.696 16.451 1.195 5.541 2.572 10.944 4.15 16.347 1.551 5.396 3.433 10.681 5.561 15.855 2.092 5.196 4.663 10.146 7.281 15.173 2.603 5.02 5.24 10.108 7.183 15.568 1.952 5.436 3.09 11.316 2.769 17.198-0.056 1.454-0.25 2.96-0.442 4.345l-0.582 4.199-1.169 8.398-2.131 16.805-1.07 8.418-1.189 8.416c-0.381 2.814-0.832 5.609-1.13 8.356-0.313 2.784-0.557 5.605-0.898 8.442-0.334 2.835-0.783 5.694-1.501 8.523-0.369 1.412-0.792 2.82-1.341 4.193-0.146 0.357-0.247 0.657-0.432 1.062l-0.448 0.96c-0.364 0.689-0.737 1.371-1.129 1.986-1.572 2.512-3.423 4.705-5.107 6.921-1.697 2.207-3.221 4.467-4.166 6.906l-0.3 0.775-0.803 0.078c-2.318 0.226-4.52-0.022-6.645-0.271-2.125-0.255-4.195-0.549-6.219-0.607-2.017-0.062-3.992 0.127-5.742 0.824-1.744 0.668-3.259 1.928-4.392 3.41-0.658 0.902-1.157 1.636-1.58 2.507-0.407 0.852-0.693 1.729-0.75 2.566-0.164 1.678 0.807 3.124 2.365 4.176 1.557 1.045 3.499 1.703 5.469 2.143 1.981 0.437 4.035 0.665 6.077 0.703 2.096 7e-3 4.282 0.071 6.384 0.14 2.118 0.065 4.221 0.121 6.299 0.057 2.076-0.065 4.134-0.247 6.096-0.713 1.959-0.464 3.815-1.236 5.381-2.413 0.77-0.587 1.529-1.27 2.077-2.005 0.586-0.777 1.119-1.675 1.64-2.577 1.041-1.816 2.031-3.71 3.146-5.561 1.13-1.839 2.31-3.704 4.072-5.254 0.878-0.752 2.003-1.444 3.358-1.559 1.364-0.119 2.641 0.474 3.567 1.198l-1.342 0.297 1.383-2.71 1.306-2.752c0.84-1.851 1.647-3.718 2.415-5.604 1.536-3.773 2.939-7.609 4.338-11.455 1.394-3.849 2.818-7.696 4.362-11.505 0.773-1.903 1.579-3.796 2.442-5.664 0.857-1.87 1.764-3.721 2.746-5.531 0.946-1.813 1.974-3.597 2.868-5.418 0.928-1.81 1.807-3.656 2.65-5.515 1.696-3.714 3.251-7.497 4.82-11.279 0.783-1.892 1.58-3.779 2.391-5.661 0.821-1.878 1.678-3.74 2.567-5.587 0.896-1.843 1.833-3.665 2.812-5.465l1.509-2.676 1.578-2.635-1.505 2.676-1.434 2.713c-0.928 1.823-1.813 3.667-2.657 5.529-0.84 1.863-1.632 3.748-2.415 5.637-0.771 1.894-1.528 3.794-2.272 5.7-1.49 3.811-2.971 7.633-4.6 11.4-0.81 1.887-1.652 3.756-2.556 5.607-0.874 1.871-1.852 3.658-2.769 5.491-0.938 1.805-1.801 3.648-2.616 5.514-0.821 1.863-1.585 3.752-2.319 5.654-1.473 3.803-2.796 7.669-4.16 11.529-1.358 3.862-2.726 7.731-4.235 11.559-0.754 1.914-1.551 3.813-2.382 5.699l-1.296 2.81-1.378 2.773-0.473 0.952-0.869-0.654c-0.741-0.558-1.546-0.88-2.325-0.801-0.782 0.069-1.579 0.518-2.291 1.146-1.432 1.275-2.569 3.049-3.626 4.83-1.058 1.799-2.017 3.681-3.066 5.56-0.532 0.94-1.07 1.882-1.751 2.81-0.718 0.973-1.555 1.728-2.458 2.438-1.821 1.4-3.964 2.307-6.124 2.841-2.167 0.539-4.361 0.75-6.524 0.843-2.166 0.09-4.312 0.056-6.438 0.014-2.143-0.046-4.202-0.087-6.352-0.07-2.203-0.018-4.393-0.236-6.564-0.688-2.163-0.468-4.339-1.14-6.34-2.439-0.988-0.657-1.934-1.511-2.615-2.631-0.7-1.107-0.996-2.499-0.901-3.773 0.084-1.286 0.486-2.457 0.987-3.518 0.496-1.048 1.2-2.073 1.791-2.886 1.424-1.898 3.296-3.446 5.522-4.324 2.209-0.886 4.557-1.087 6.769-1.029 2.224 0.059 4.368 0.36 6.457 0.603 2.084 0.24 4.139 0.441 6.057 0.243l-1.103 0.854c2.229-5.741 6.64-9.735 9.451-14.326 0.366-0.579 0.665-1.141 0.965-1.699l0.445-0.962c0.109-0.237 0.241-0.607 0.361-0.904 0.497-1.253 0.884-2.56 1.225-3.882 0.663-2.654 1.088-5.394 1.405-8.172 0.324-2.776 0.558-5.589 0.865-8.424 0.304-2.875 0.745-5.665 1.112-8.453l1.153-8.381 1.039-8.408 2.076-16.852 1.139-8.403 0.577-4.2c0.2-1.414 0.373-2.714 0.433-4.086 0.313-5.432-0.705-10.876-2.546-16.072-1.831-5.211-4.388-10.208-6.969-15.226-2.585-5.005-5.216-10.115-7.329-15.42-2.152-5.286-4.048-10.676-5.601-16.153-1.575-5.454-2.968-11.02-4.136-16.535-1.133-5.521-2.661-10.863-4.547-16.154-1.868-5.282-4.04-10.467-6.417-15.557-1.18-2.548-2.431-5.07-3.705-7.568l-1.946-3.749c-0.692-1.305-1.275-2.646-1.796-3.995-2.066-5.389-3.297-10.912-6.043-15.628-1.358-2.347-3.098-4.435-5.191-6.126-2.102-1.682-4.532-2.95-7.098-3.897l1.379-1.059c0.108 0.343-0.36 0.964-0.412 0.927-0.098 0.074-0.213 0.136-0.328 0.176-0.094 0.03-0.166 0.044-0.244 0.058-0.086 0.011-0.183 0.02-0.236 0.02-0.133 5e-3 -0.231 2e-3 -0.333-1e-3l-0.561-0.037-1.052-0.112-2.052-0.28c-1.359-0.201-2.71-0.421-4.06-0.651-2.699-0.464-5.386-0.958-8.076-1.538-0.673-0.147-1.346-0.299-2.027-0.475-0.344-0.09-0.68-0.179-1.056-0.308-0.438-0.155-0.71-0.325-1.033-0.472-1.257-0.624-2.482-1.335-3.637-2.156-2.321-1.632-4.307-3.744-5.863-6.082-1.578-2.351-2.776-4.852-3.788-7.433-1.01-2.574-1.855-5.214-2.42-7.945-0.277-1.366-0.482-2.757-0.521-4.183-0.021-0.712 0.01-1.434 0.112-2.161 0.053-0.369 0.113-0.714 0.226-1.105 0.051-0.2 0.108-0.376 0.167-0.526l0.098-0.269 0.112-0.249c0.582-1.334 1.451-2.547 2.492-3.538 1.035-1.005 2.221-1.8 3.429-2.495 2.426-1.384 4.977-2.374 7.306-3.687 1.159-0.652 2.274-1.401 3.215-2.277 0.955-0.924 1.809-1.946 2.58-3.042 1.546-2.183 2.787-4.657 4.543-6.824 0.871-1.083 1.853-2.077 2.937-2.967 1.056-0.852 2.227-1.638 3.359-2.381 2.294-1.494 4.654-2.88 7.07-4.161 2.417-1.278 4.894-2.451 7.45-3.429 2.554-0.971 5.191-1.781 7.913-2.121 1.358-0.165 2.742-0.198 4.096 0.023 1.35 0.222 2.67 0.74 3.71 1.631z"/>
		<path d="m322 411s-0.012 0.11-0.036 0.326c-0.01 0.216-0.092 0.537-0.075 0.965-0.035 0.839 0.054 2.164 0.848 3.61 0.754 1.465 2.335 2.857 4.451 3.927 2.138 1.046 4.781 1.853 7.805 2.404 6.054 1.126 13.579 1.382 22.162 1.108 8.591-0.288 18.26-1.151 28.787-2.313 5.271-0.572 10.723-1.301 16.455-1.877 0.701-0.063 1.486-0.128 2.194-0.148 0.72-0.03 1.443-0.061 2.168-0.091 1.452-0.061 2.915-0.122 4.39-0.184 2.949-0.124 5.942-0.249 8.978-0.376 3.035-0.125 6.112-0.252 9.227-0.381 3.121-0.056 6.28-0.111 9.475-0.168 3.194-0.05 6.424-0.101 9.684-0.152 3.261-0.045 6.553-0.092 9.866-0.077 13.257 3e-3 26.955 7e-3 40.875 0.011 6.958-2e-3 13.971-4e-3 21.012-6e-3 3.514-0.029 7.039-0.021 10.561-0.081 3.517-0.105 7.035-0.21 10.555-0.315 3.515-0.149 7.012-0.451 10.516-0.667 3.501-0.186 7.011-0.604 10.415-1.102 3.415-0.528 6.778-1.246 9.849-2.522 3.073-1.263 5.794-3.15 7.953-5.621 2.173-2.46 3.803-5.418 5.152-8.489 0.359-0.757 0.676-1.537 0.967-2.33 0.286-0.777 0.641-1.593 0.871-2.336 0.525-1.632 1.05-3.261 1.573-4.884 1.829-6.412 3.101-13.036 4.163-19.535 1.076-6.513 1.873-12.974 2.856-19.296 0.975-6.301 1.844-12.455 2.474-18.474 0.607-6.015 1.041-11.888 0.994-17.552-0.04-5.676-0.472-11.097-2.126-16.095-1.579-4.964-3.635-9.594-5.691-13.939-0.541-1.073-1.075-2.133-1.603-3.178-0.52-1.05-1.056-2.073-1.622-3.061-0.554-0.995-1.101-1.976-1.638-2.942-0.577-0.941-1.146-1.869-1.706-2.781-0.54-0.928-1.147-1.784-1.737-2.632-0.294-0.425-0.586-0.847-0.874-1.265l-0.217-0.313-0.096-0.138-0.121-0.147-0.48-0.586c-1.265-1.434-2.834-2.59-4.373-3.581-3.121-1.97-6.253-3.393-8.942-4.955-2.664-1.537-5.079-3.248-6.123-5.545-0.521-1.127-0.612-2.309-0.479-3.333 0.088-0.512 0.178-0.996 0.346-1.434 0.126-0.452 0.32-0.85 0.495-1.229 0.73-1.499 1.496-2.527 2.017-3.205 0.53-0.669 0.805-1.015 0.805-1.015s-0.264 0.354-0.775 1.041c-0.497 0.692-1.229 1.744-1.901 3.247-0.16 0.379-0.339 0.777-0.447 1.223-0.151 0.434-0.223 0.907-0.292 1.403-0.096 0.992 0.03 2.104 0.554 3.15 1.052 2.124 3.413 3.729 6.085 5.189 2.695 1.483 5.854 2.825 9.094 4.76 1.608 0.988 3.236 2.106 4.678 3.664l0.494 0.575 0.124 0.145 0.129 0.171 0.227 0.312c0.305 0.417 0.611 0.839 0.92 1.263 0.62 0.849 1.261 1.708 1.828 2.629 4.715 7.277 9.432 15.842 12.944 26.043 0.19 0.635 0.381 1.273 0.573 1.915l0.288 0.965 0.072 0.242c0.045 0.151 0.043 0.187 0.067 0.286l0.107 0.507c0.14 0.677 0.294 1.357 0.422 2.042 0.102 0.688 0.204 1.378 0.307 2.073 0.349 2.779 0.559 5.621 0.596 8.504 0.132 5.771-0.222 11.711-0.745 17.79-0.547 6.075-1.334 12.297-2.217 18.619-0.855 6.303-1.69 12.777-2.723 19.352-1.048 6.583-2.275 13.225-4.162 19.948-0.515 1.626-1.031 3.256-1.549 4.892-0.278 0.896-0.611 1.659-0.915 2.496-0.299 0.824-0.626 1.64-1.001 2.445-1.405 3.233-3.133 6.441-5.562 9.224-2.405 2.793-5.56 5-8.96 6.408-3.403 1.43-6.969 2.193-10.498 2.759-3.559 0.537-7.063 0.97-10.614 1.177-3.544 0.234-7.092 0.566-10.64 0.72-3.548 0.089-7.096 0.178-10.64 0.267-3.54 0.043-7.071 0.018-10.599 0.03-7.044-0.032-14.06-0.063-21.02-0.095-13.918-0.07-27.614-0.14-40.869-0.207-6.627-0.054-13.125 0.097-19.497 0.08-3.186 0.01-6.336 0.021-9.448 0.03-3.116 0.083-6.194 0.166-9.231 0.248-3.037 0.083-6.032 0.165-8.982 0.246-1.476 0.04-2.939 0.08-4.392 0.12-0.727 0.02-1.45 0.04-2.17 0.059-0.733 0.011-1.379 0.059-2.103 0.111-5.652 0.484-11.162 1.139-16.442 1.635-10.565 1.048-20.297 1.674-28.938 1.751-8.633 0.069-16.201-0.365-22.298-1.648-3.045-0.626-5.714-1.515-7.857-2.659-2.126-1.16-3.705-2.643-4.43-4.167-0.764-1.506-0.807-2.844-0.746-3.688-3e-3 -0.431 0.089-0.747 0.105-0.964 0.033-0.219 0.049-0.328 0.049-0.328z"/>
		<path d="m600 446s0.056 0.631 0.159 1.814c0.026 0.295 0.055 0.626 0.087 0.989 0.046 0.361 0.125 0.751 0.193 1.173 0.14 0.844 0.293 1.809 0.585 2.871 0.222 1.076 0.641 2.22 1.051 3.471 0.253 0.608 0.517 1.242 0.79 1.899 0.281 0.652 0.631 1.305 0.959 1.99 1.381 2.719 3.306 5.584 5.317 8.829 1.019 1.612 2.021 3.354 2.993 5.198 0.928 1.869 1.819 3.857 2.489 5.995 0.172 0.556 0.343 1.02 0.519 1.661 0.125 0.537 0.252 1.077 0.379 1.62 0.255 1.087 0.513 2.187 0.773 3.299 0.216 1.137 0.35 2.334 0.518 3.521 0.165 1.192 0.342 2.398 0.369 3.601 0.064 1.207 0.131 2.424 0.196 3.649 0.019 1.225-0.017 2.455-0.023 3.694-7e-3 0.62-0.015 1.242-0.021 1.865l-0.11 1.863c-0.084 1.245-0.169 2.496-0.254 3.752-0.45 4.998-1.053 10.036-1.576 15.05l-0.105 0.94-0.013 0.117-7e-3 0.059c9e-3 -0.127 0-1e-3 2e-3 -0.014l-0.014 0.236-0.028 0.474-0.109 1.895c-0.048 1.251-0.218 2.553-0.11 3.736 0.047 1.209 0.094 2.415 0.141 3.618 0.109 1.209 0.299 2.423 0.442 3.628 0.087 0.602 0.131 1.208 0.252 1.803l0.372 1.78c0.261 1.182 0.424 2.375 0.761 3.531 0.313 1.16 0.623 2.314 0.932 3.46 0.306 1.146 0.714 2.262 1.063 3.382 1.445 4.475 3.106 8.706 4.634 12.817 1.516 4.151 2.561 8.134 3.724 11.722 1.159 3.59 2.34 6.83 3.694 9.557 1.349 2.727 2.872 4.916 4.367 6.511 1.549 1.531 2.949 2.566 3.989 3.122 1.056 0.537 1.62 0.822 1.62 0.822s-0.59-0.234-1.695-0.675c-1.089-0.477-2.633-1.359-4.324-2.851-1.646-1.534-3.37-3.689-4.942-6.397-1.584-2.702-3.015-5.938-4.338-9.521-1.358-3.573-2.598-7.505-4.187-11.484-0.834-2.009-1.69-4.072-2.565-6.182-0.838-2.142-1.725-4.313-2.481-6.594-1.62-4.506-2.984-9.339-3.742-14.38-0.161-1.267-0.365-2.527-0.49-3.813-0.058-1.304-0.116-2.612-0.175-3.923-0.111-1.335 0.049-2.556 0.088-3.829l0.097-1.895 0.023-0.474 0.013-0.237 0.028-0.311 0.104-0.946c0.563-5.052 1.196-10.064 1.674-14.989 0.094-1.229 0.188-2.454 0.28-3.672l0.146-1.822c0.019-0.604 0.038-1.207 0.058-1.808 0.031-1.202 0.092-2.398 0.099-3.583-0.04-1.183-0.079-2.355-0.117-3.52-1e-3 -1.175-0.147-2.301-0.277-3.421-0.142-1.123-0.217-2.229-0.386-3.343-0.222-1.12-0.441-2.229-0.659-3.323-0.108-0.547-0.216-1.092-0.323-1.632-0.103-0.424-0.28-1-0.414-1.487-1.152-4.069-2.992-7.687-4.829-10.983-1.854-3.285-3.617-6.341-4.843-9.222-0.291-0.727-0.603-1.416-0.847-2.104-0.235-0.691-0.462-1.357-0.679-1.998-0.338-1.312-0.684-2.501-0.839-3.612-0.089-0.553-0.208-1.067-0.257-1.563-0.04-0.497-0.079-0.963-0.114-1.396-0.031-0.432-0.075-0.83-0.089-1.195 1e-3 -0.365 1e-3 -0.696 2e-3 -0.993-1e-3 -1.188 0-1.822 0-1.822z"/>
		<path d="m323 570s0.386 1.017 1.109 2.924c0.73 1.902 1.766 4.711 3 8.314 1.211 3.609 2.682 7.991 4.368 13.018 1.699 5.017 3.633 10.668 5.99 16.719 2.378 6.038 5.28 12.453 9.069 18.811 0.474 0.794 0.952 1.593 1.432 2.396 0.521 0.778 1.045 1.562 1.572 2.35 0.536 0.782 1.039 1.593 1.608 2.364 0.576 0.766 1.154 1.537 1.736 2.312 1.127 1.578 2.422 3.051 3.68 4.575l0.95 1.143c0.242 0.314 0.666 0.715 0.992 1.069 0.693 0.768 1.408 1.382 2.117 2.04 1.484 1.311 3.08 2.577 4.694 3.922 0.81 0.652 1.603 1.385 2.406 2.088 0.766 0.772 1.579 1.488 2.282 2.359 0.365 0.446 0.724 0.781 1.093 1.323 0.305 0.438 0.612 0.833 0.917 1.311 0.294 0.53 0.622 1.052 0.874 1.604 0.208 0.571 0.5 1.097 0.618 1.719 0.375 1.188 0.367 2.502 0.244 3.699-0.138 1.222-0.473 2.288-0.718 3.307-0.56 2.015-0.693 3.798-0.216 5.642 0.109 0.457 0.304 0.907 0.446 1.363l0.029 0.085c0.017 0.049-0.062-0.126-6e-3 -9e-3l0.089 0.182 0.18 0.363 0.359 0.723c0.271 0.325 0.444 0.676 0.753 1.002 0.317 0.319 0.598 0.677 0.977 0.928 0.678 0.599 1.534 0.963 2.388 1.304 0.896 0.254 1.82 0.47 2.787 0.477 1.918 0.084 3.901-0.312 5.68-1.111 3.642-1.484 6.123-4.857 7.09-8.745 1.003-3.866 0.825-8.169-0.225-12.005-0.303-1.02-0.561-2.1-0.972-2.964l-0.556-1.37c-0.181-0.457-0.454-0.908-0.674-1.362l-0.691-1.362c-0.251-0.445-0.527-0.879-0.788-1.318l-0.792-1.313-0.871-1.27c-2.321-3.385-4.964-6.544-7.554-9.697-2.586-3.155-5.168-6.291-7.359-9.647-2.189-3.343-4.068-6.885-5.12-10.633-0.041-0.141-0.07-0.171-0.121-0.401l-0.075-0.342-0.15-0.681-0.299-1.354-0.297-1.344c-0.055-0.475-0.11-0.947-0.165-1.418-0.093-0.939-0.242-1.879-0.279-2.796-0.016-0.914-0.032-1.82-0.048-2.72 0.061-3.582 0.425-7.005 0.828-10.236 0.185-1.616 0.365-3.199 0.542-4.747 0.162-1.544 0.256-3.053 0.401-4.523 0.092-2.962 0.179-5.772 0.26-8.413-0.088-5.27-0.217-9.878-0.386-13.686-0.194-3.801-0.14-6.802-0.174-8.839-0.016-2.043-0.024-3.13-0.024-3.13s0.065 1.086 0.187 3.122c0.127 2.036 0.272 5.017 0.594 8.811 0.315 3.786 0.626 8.411 0.92 13.733 0.021 2.658 0.043 5.488 0.066 8.471-0.078 1.493-0.153 3.031-0.276 4.594-0.141 1.559-0.285 3.152-0.432 4.781-0.327 3.248-0.6 6.603-0.577 10.053 0.036 0.858 0.071 1.724 0.107 2.597 0.056 0.867 0.216 1.709 0.317 2.573l0.173 1.295 0.329 1.338 0.331 1.347 0.166 0.677 0.083 0.34c-6e-3 -1e-3 0.065 0.182 0.093 0.264 1.053 3.445 2.891 6.734 5.067 9.893 2.195 3.155 4.715 6.223 7.346 9.329 2.621 3.114 5.349 6.288 7.82 9.796l0.927 1.318 0.86 1.382c0.284 0.464 0.58 0.92 0.854 1.393l0.766 1.462c0.246 0.497 0.526 0.959 0.742 1.489l0.65 1.587c0.486 1.077 0.722 2.084 1.033 3.114 1.206 4.396 1.427 9.012 0.296 13.555-0.564 2.257-1.565 4.467-3.056 6.369-0.338 0.481-0.813 0.944-1.246 1.405-0.229 0.255-0.417 0.377-0.628 0.572l-0.308 0.268-0.154 0.133-0.077 0.067c-0.151 0.12-0.095 0.071-0.153 0.115-0.983 0.711-2.009 1.366-3.12 1.818-2.192 0.966-4.585 1.443-7.009 1.334-1.211-0.021-2.424-0.287-3.606-0.643-1.156-0.448-2.318-0.975-3.282-1.807-1.003-0.762-1.796-1.771-2.517-2.928l-0.359-0.729-0.178-0.363-0.089-0.182c0.023 0.057-0.083-0.18-0.084-0.195l-0.037-0.106c-0.185-0.571-0.411-1.122-0.551-1.711-0.27-1.178-0.462-2.418-0.357-3.638 0.063-1.213 0.315-2.394 0.598-3.441 0.264-1.059 0.565-2.043 0.663-2.946 0.086-0.907 0.109-1.771-0.154-2.62-0.059-0.433-0.302-0.846-0.439-1.271-0.182-0.412-0.421-0.788-0.62-1.19-0.255-0.415-0.589-0.86-0.878-1.289-0.211-0.337-0.61-0.743-0.905-1.111-0.604-0.776-1.36-1.455-2.05-2.173-0.758-0.679-1.482-1.367-2.277-2.024-1.551-1.324-3.162-2.633-4.717-4.041-0.778-0.735-1.585-1.468-2.239-2.211-0.353-0.394-0.669-0.684-1.05-1.161l-0.961-1.184c-1.279-1.573-2.568-3.115-3.685-4.761-0.577-0.809-1.151-1.611-1.722-2.411-0.564-0.803-1.061-1.645-1.589-2.458-0.52-0.817-1.037-1.631-1.55-2.439-0.472-0.832-0.94-1.66-1.405-2.481-3.713-6.579-6.5-13.156-8.755-19.305-2.27-6.149-3.979-11.896-5.478-16.983-1.491-5.086-2.791-9.521-3.861-13.173-1.113-3.635-1.956-6.504-2.601-8.439-0.623-1.946-0.956-2.981-0.956-2.981z"/>
		<path d="m465 548l1.189 9.388 0.303 2.346 0.422 2.325 0.842 4.646c0.292 1.546 0.536 3.098 0.865 4.637l1.044 4.608c0.699 3.07 1.362 6.146 2.177 9.192l1.168 4.579c0.399 1.541 0.732 3.039 1.19 4.554 0.869 3.004 1.962 5.906 3.096 8.857 1.133 2.939 2.281 5.897 3.249 8.944 0.957 3.045 1.771 6.186 2.044 9.448 0.275 3.253-0.016 6.613-1.026 9.772-0.251 0.79-0.481 1.591-0.866 2.326-0.364 0.752-0.66 1.501-1.087 2.254-0.755 1.333-1.69 2.795-2.63 4.07-1.881 2.614-3.955 5.055-6.126 7.404-2.174 2.348-4.471 4.583-6.924 6.664-2.458 2.074-5.045 4.032-7.972 5.602-0.708 0.421-1.507 0.729-2.281 1.067-0.377 0.184-0.804 0.298-1.223 0.422l-0.63 0.185-0.315 0.091-0.157 0.046c-9e-3 5e-3 -0.215 0.042-0.162 0.031l-0.072 0.011-1.175 0.176-1.409 0.057-1.299-0.077-1.254-0.162c-1.641-0.255-3.166-0.643-4.583-0.78-1.421-0.146-2.695-4e-3 -3.838 0.559-0.274 0.171-0.579 0.265-0.838 0.483l-0.796 0.605c-0.485 0.499-1.003 0.952-1.429 1.552-0.204 0.27-0.491 0.594-0.632 0.816l-0.645 0.99c-0.24 0.343-0.327 0.614-0.502 0.921l-0.234 0.447-0.184 0.481c-0.514 1.276-0.716 2.592-0.46 3.789 0.244 1.198 0.938 2.293 1.931 3.207 0.991 0.916 2.24 1.646 3.57 2.235 0.661 0.304 1.363 0.541 2.063 0.785 0.643 0.18 1.495 0.429 2.213 0.613 2.818 0.664 5.913 0.901 8.904 0.703 3.016-0.19 6.017-0.785 8.944-1.668 5.861-1.787 11.4-4.677 16.633-8.016 5.247-3.34 10.202-7.17 14.978-11.222 4.769-4.045 9.379-8.372 13.972-12.646 4.537-4.316 8.947-8.793 12.548-13.824l0.681-0.938 0.599-0.982 1.2-1.967c0.741-1.373 1.385-2.717 1.737-4.109 0.151-0.689 0.221-1.369 0.165-2.051-0.051-0.681-0.252-1.386-0.471-2.122-0.467-1.468-0.963-3.063-1.24-4.663-0.52-3.126-1.12-6.272-0.989-9.57 0.082-1.633 0.377-3.34 1.256-4.864 0.179-0.398 0.517-0.714 0.775-1.067 0.288-0.333 0.66-0.591 0.991-0.883 0.378-0.222 0.766-0.437 1.155-0.63l1.231-0.392-0.466 0.521 0.447-2.186c0.222-0.707 0.465-1.41 0.707-2.108 0.314-0.666 0.601-1.35 0.939-1.997 0.36-0.633 0.695-1.289 1.076-1.899 0.735-1.246 1.521-2.446 2.185-3.7l0.508-0.937 0.438-0.966c0.139-0.317 0.308-0.656 0.424-0.956l0.349-1.021 0.347-1.021 0.247-1.027 0.249-1.029 0.173-1.054c0.119-0.703 0.229-1.408 0.282-2.122 0.073-0.711 0.155-1.423 0.184-2.139 0.097-1.431 0.127-2.867 0.157-4.304l0.068-4.31 0.118 4.312c0.031 1.438 0.063 2.878 0.027 4.32 3e-3 0.721-0.049 1.441-0.092 2.163-0.028 0.723-0.118 1.441-0.216 2.16l-0.143 1.078-0.223 1.075-0.225 1.076-0.314 1.031-0.316 1.031c-0.13 0.374-0.276 0.684-0.414 1.029l-0.422 1.012-0.488 0.975c-0.641 1.31-1.394 2.543-2.079 3.796-0.361 0.621-0.658 1.259-0.99 1.886-0.307 0.635-0.555 1.29-0.835 1.932-0.205 0.666-0.412 1.331-0.6 1.999l-0.352 2.053-0.073 0.425-0.393 0.096c-1.418 0.347-2.598 1.209-3.243 2.463-0.67 1.24-0.891 2.74-0.935 4.24-0.067 3.022 0.568 6.12 1.145 9.19 0.294 1.504 0.764 2.92 1.281 4.446 0.243 0.768 0.501 1.583 0.59 2.479 0.094 0.891 0.019 1.795-0.155 2.648-0.839 3.373-2.598 6.042-4.353 8.759-3.646 5.31-8.056 9.947-12.558 14.406-2.268 2.226-4.553 4.389-6.867 6.546-2.312 2.16-4.658 4.293-7.058 6.371-4.799 4.155-9.807 8.111-15.17 11.602-5.372 3.458-11.112 6.488-17.327 8.409-6.205 1.904-12.916 2.602-19.494 1.051-0.809-0.206-1.472-0.4-2.344-0.652-0.79-0.276-1.58-0.549-2.353-0.904-1.544-0.693-3.061-1.563-4.387-2.793-1.317-1.212-2.425-2.885-2.801-4.791-0.396-1.903-0.041-3.829 0.62-5.459l0.245-0.621 0.313-0.602c0.211-0.379 0.423-0.846 0.641-1.147l0.648-0.989c0.289-0.438 0.538-0.699 0.811-1.057 0.498-0.687 1.158-1.292 1.784-1.91 0.709-0.563 1.434-1.117 2.297-1.516 1.698-0.842 3.684-1.01 5.388-0.814 1.724 0.183 3.263 0.589 4.738 0.817l1.091 0.146 1.063 0.068 0.953-0.017 1.167-0.162 0.073-0.011c0.102-0.017-0.056 0.013-0.018 2e-3l0.127-0.037 0.253-0.073 0.506-0.145c0.338-0.096 0.678-0.175 1.013-0.337 0.672-0.291 1.354-0.535 2.008-0.918 2.65-1.385 5.149-3.221 7.523-5.188 4.74-3.965 9.048-8.554 12.776-13.476 0.476-0.616 0.913-1.236 1.328-1.858 0.434-0.598 0.838-1.293 1.248-1.964 0.362-0.61 0.663-1.328 1.001-1.987 0.367-0.658 0.581-1.375 0.822-2.083 0.965-2.828 1.298-5.86 1.103-8.894-0.441-6.101-2.691-12.023-4.819-17.938-1.071-2.956-2.145-5.986-2.968-9.059-0.819-3.085-1.422-6.163-2.127-9.248-0.718-3.073-1.286-6.185-1.889-9.285l-0.898-4.65c-0.281-1.555-0.479-3.127-0.722-4.688l-0.696-4.689-0.348-2.343c-0.093-0.782-0.142-1.57-0.212-2.355l-0.784-9.432z"/>
		<path d="m247 324s-0.103 0.042-0.294 0.119c-0.185 0.08-0.493 0.163-0.817 0.33-0.161 0.078-0.338 0.165-0.532 0.258-0.184 0.121-0.385 0.229-0.593 0.351-0.403 0.272-0.815 0.609-1.209 1.012-0.775 0.828-1.433 1.954-1.979 3.32-0.549 1.363-1.015 2.929-1.515 4.541-0.26 0.801-0.512 1.62-0.808 2.423-0.278 0.805-0.609 1.597-0.952 2.355-0.358 0.757-0.732 1.481-1.162 2.14-0.412 0.664-0.89 1.248-1.348 1.759-0.248 0.245-0.465 0.49-0.704 0.696-0.249 0.199-0.474 0.39-0.699 0.555-0.454 0.327-0.876 0.562-1.238 0.724-0.341 0.189-0.658 0.251-0.848 0.326-0.197 0.059-0.302 0.091-0.302 0.091s0.074-0.083 0.213-0.238c0.136-0.154 0.349-0.357 0.576-0.653 0.243-0.276 0.493-0.647 0.778-1.05 0.268-0.422 0.535-0.909 0.813-1.437 0.254-0.549 0.508-1.143 0.745-1.792 0.249-0.64 0.461-1.348 0.692-2.073 0.444-1.468 0.871-3.077 1.382-4.723 0.263-0.816 0.54-1.648 0.869-2.458 0.315-0.813 0.703-1.611 1.129-2.361 0.426-0.754 0.945-1.45 1.494-2.059 0.569-0.603 1.197-1.096 1.831-1.454 0.311-0.183 0.633-0.321 0.93-0.449 0.317-0.093 0.607-0.188 0.885-0.252 0.283-0.047 0.541-0.097 0.782-0.123 0.245-4e-3 0.47-9e-3 0.673-0.013 0.398-0.024 0.685 0.073 0.893 0.085 0.206 0.032 0.315 0.05 0.315 0.05z"/>
		<path d="m321 412s-0.451-0.105-1.296-0.304c-0.423-0.099-0.944-0.221-1.558-0.365-0.612-0.15-1.325-0.276-2.085-0.582-0.773-0.274-1.629-0.577-2.561-0.907-0.479-0.147-0.936-0.378-1.415-0.612-0.481-0.233-0.979-0.474-1.494-0.723-1.057-0.457-2.072-1.133-3.174-1.803-1.133-0.631-2.167-1.508-3.302-2.358-0.578-0.415-1.117-0.894-1.657-1.394-0.546-0.495-1.104-0.999-1.67-1.511-0.543-0.534-1.063-1.107-1.606-1.677s-1.095-1.149-1.601-1.777c-2.134-2.434-4.142-5.165-6.161-8.007-1.99-2.855-4.046-5.778-6.142-8.711-2.141-2.892-4.362-5.784-6.85-8.41l-0.452-0.507c-0.069-0.092-0.303-0.305-0.447-0.451l-0.988-0.972-0.987-0.971c-0.332-0.313-0.67-0.59-1.004-0.887-1.311-1.172-2.725-2.33-4.129-3.476-2.837-2.278-5.603-4.66-8.104-7.213-1.156-1.38-2.404-2.634-3.306-4.146-0.242-0.362-0.482-0.723-0.721-1.081-0.127-0.196-0.22-0.32-0.375-0.573l-0.286-0.543c-0.381-0.721-0.757-1.434-1.127-2.137-0.716-1.431-1.36-2.91-1.967-4.298-0.543-1.408-1.099-2.758-1.574-4.069-0.967-2.617-1.771-5.036-2.478-7.179-0.706-2.141-1.321-4.007-1.828-5.544-0.503-1.539-0.928-2.735-1.216-3.555-0.286-0.819-0.439-1.257-0.439-1.257s0.206 0.415 0.59 1.193c0.377 0.782 0.977 1.913 1.622 3.4 1.364 2.946 3.115 7.241 5.345 12.292 0.555 1.265 1.187 2.55 1.81 3.896 0.678 1.31 1.313 2.65 2.088 4.024 0.404 0.685 0.813 1.378 1.228 2.081l0.312 0.529 0.329 0.44c0.235 0.317 0.472 0.636 0.709 0.956 0.883 1.324 2.07 2.485 3.178 3.727 2.41 2.351 5.188 4.523 8.029 6.801 1.427 1.143 2.866 2.294 4.313 3.565 0.357 0.312 0.732 0.619 1.075 0.936l0.996 0.961 0.998 0.962c0.181 0.182 0.299 0.273 0.533 0.529l0.474 0.526c2.577 2.773 4.84 5.781 7.001 8.76 2.127 2.999 4.054 6.034 5.966 8.912 1.937 2.85 3.756 5.634 5.708 8.075 0.938 1.256 1.98 2.354 2.921 3.484 0.51 0.525 1.011 1.042 1.503 1.549 0.486 0.516 0.974 1.011 1.5 1.44 1.028 0.886 1.98 1.787 3.01 2.479 1.003 0.729 1.931 1.47 2.912 1.992 0.964 0.543 1.833 1.144 2.704 1.543 0.872 0.412 1.672 0.791 2.396 1.132 0.713 0.373 1.415 0.577 2 0.804 0.591 0.217 1.094 0.401 1.501 0.551 0.814 0.301 1.249 0.461 1.249 0.461z"/>
		<path d="m464 549s0.107 0.016 0.297 0.043c0.171 0.027 0.376 0.066 0.568 0.113 0.383 0.094 0.633 0.219 0.635 0.344 1e-3 0.125-0.246 0.25-0.631 0.344-0.192 0.047-0.399 0.086-0.57 0.113-0.191 0.027-0.299 0.043-0.299 0.043s-0.108-0.016-0.299-0.043c-0.171-0.027-0.378-0.066-0.57-0.113-0.385-0.094-0.632-0.219-0.631-0.344 2e-3 -0.125 0.252-0.25 0.635-0.344 0.192-0.047 0.397-0.086 0.568-0.113 0.19-0.027 0.297-0.043 0.297-0.043z"/>
		<path d="m314 583s0.158-0.334 0.463-0.98c0.315-0.643 0.735-1.618 1.381-2.845 1.259-2.461 3.12-6.115 6.358-10.197 1.627-2.022 3.584-4.176 6.077-6.116 2.479-1.946 5.455-3.696 8.844-5.05 3.384-1.366 7.169-2.326 11.184-2.996 3.961-0.699 8.22-1.278 12.652-1.676 8.866-0.826 18.532-0.991 28.699-0.645 5.092 0.146 10.299 0.409 15.634 0.728 5.327 0.287 10.747 0.708 16.252 0.882 2.754 0.138 5.524 0.116 8.315 0.153 1.393-0.037 2.79-0.073 4.191-0.109l2.105-0.067 2.103-0.159c1.392-0.12 2.84-0.184 4.196-0.35 1.421-0.183 2.847-0.365 4.275-0.549s2.861-0.367 4.297-0.551c1.438-0.179 2.877-0.363 4.296-0.62 2.851-0.473 5.713-0.948 8.583-1.425 2.88-0.514 5.768-1.028 8.66-1.545 2.89-0.532 5.804-1.026 8.723-1.518l4.377-0.742c0.747-0.121 1.423-0.254 2.228-0.365l2.195-0.289c6.035-0.703 12.184-0.495 18.115 0.93 5.918 1.458 11.439 4.201 16.274 7.662 4.849 3.467 9.071 7.552 13.051 11.679 3.965 4.147 7.7 8.362 11.464 12.396 3.759 4.036 7.558 7.888 11.498 11.392 1.965 1.826 3.985 3.439 5.968 5.076 1.005 0.803 2.044 1.562 3.056 2.337 1.006 0.785 2.036 1.523 3.073 2.239 4.094 2.939 8.274 5.528 12.347 7.988 2.047 1.215 4.062 2.406 6.065 3.537 1.015 0.571 1.961 1.144 2.965 1.672 0.979 0.513 1.967 0.993 2.968 1.472 3.983 1.912 7.89 3.681 11.344 5.937 1.716 1.162 3.339 2.343 4.58 4.14 0.231 0.42 0.461 0.836 0.689 1.25 0.189 0.472 0.377 0.94 0.563 1.405 0.13 0.467 0.258 0.929 0.385 1.388 0.083 0.466 0.165 0.928 0.247 1.386 0.472 3.687 0.024 7.112-0.563 10.188-0.607 3.084-1.405 5.839-2.207 8.316-1.522 4.94-3.428 8.607-4.713 11.045-1.471 2.344-2.257 3.596-2.257 3.596s0.736-1.278 2.116-3.677c1.207-2.497 2.895-6.157 4.302-11.15 0.719-2.46 1.438-5.234 1.946-8.28 0.494-3.037 0.82-6.409 0.274-9.869-0.089-0.425-0.178-0.854-0.268-1.286-0.129-0.419-0.259-0.841-0.39-1.266-0.168-0.393-0.338-0.788-0.509-1.187-0.238-0.404-0.479-0.813-0.721-1.223-0.987-1.336-2.6-2.537-4.254-3.562-3.375-2.074-7.245-3.786-11.28-5.624-1.005-0.459-2.039-0.938-3.071-1.458-1.007-0.507-2.026-1.097-3.029-1.639-2.029-1.099-4.076-2.262-6.158-3.448-4.145-2.405-8.412-4.947-12.619-7.857-8.499-5.687-16.69-12.904-24.243-21.06-3.815-4.041-7.574-8.232-11.51-12.302-3.946-4.048-8.085-7.992-12.727-11.269-4.634-3.272-9.807-5.794-15.339-7.126-5.53-1.302-11.365-1.459-17.051-0.777l-2.197 0.276c-0.659 0.086-1.434 0.229-2.146 0.341l-4.356 0.713c-2.902 0.472-5.804 0.946-8.704 1.463-2.901 0.5-5.797 1-8.685 1.498-2.907 0.465-5.807 0.929-8.694 1.391-1.443 0.252-2.884 0.428-4.32 0.598-1.437 0.176-2.87 0.352-4.3 0.526s-2.856 0.35-4.278 0.524c-1.49 0.172-2.901 0.223-4.349 0.339l-2.153 0.15-2.146 0.057c-1.429 0.028-2.853 0.058-4.271 0.086-2.831-0.052-5.647-0.048-8.424-0.203-11.13-0.461-21.75-1.605-31.871-2.028-10.114-0.52-19.682-0.521-28.474 0.144-4.399 0.308-8.565 0.835-12.575 1.42-3.964 0.547-7.67 1.377-11.001 2.612-3.333 1.223-6.27 2.839-8.744 4.669-2.485 1.822-4.466 3.881-6.129 5.829-3.292 3.946-5.327 7.492-6.664 9.904-0.691 1.198-1.148 2.158-1.488 2.788-0.33 0.636-0.5 0.963-0.5 0.963z"/>
		<path d="m639 597s0.104 0.09 0.304 0.265c0.192 0.183 0.517 0.414 0.869 0.788 0.672 0.784 1.635 2.022 2.336 3.85 0.72 1.811 1.328 4.113 1.698 6.795 0.383 2.68 0.579 5.73 0.557 9.049-0.012 3.319-0.194 6.909-0.567 10.685-0.363 3.776-0.859 7.745-1.539 11.822-0.68 4.075-1.443 8.277-2.392 12.511-0.939 4.236-1.979 8.516-3.181 12.777-0.312 1.073-0.622 2.106-0.993 3.213-0.379 1.043-0.673 2.048-1.128 3.122-0.808 2.132-1.799 4.187-3.166 6.112l-0.517 0.715-0.604 0.666-0.608 0.658-0.694 0.584c-0.237 0.188-0.46 0.393-0.708 0.562l-0.768 0.475c-0.502 0.34-1.047 0.566-1.586 0.804-2.172 0.915-4.374 1.245-6.469 1.481-2.107 0.225-4.134 0.309-6.123 0.385-1.994 0.061-3.874 0.107-5.715 0.313-1.864 0.178-3.745 0.394-5.64 0.286-1.871-0.133-3.894-0.666-5.268-2.009-1.386-1.296-2.093-2.935-2.461-4.454-0.383-1.639-0.272-3.184 0.117-4.56 0.854-2.74 2.563-4.564 4.018-5.836 1.479-1.284 2.845-1.995 3.773-2.439 0.459-0.236 0.835-0.365 1.08-0.469 0.248-0.1 0.375-0.151 0.375-0.151s-0.121 0.063-0.356 0.188c-0.233 0.128-0.591 0.293-1.021 0.573-0.875 0.525-2.12 1.386-3.443 2.732-1.301 1.339-2.727 3.229-3.313 5.687-0.262 1.213-0.231 2.597 0.158 3.854 0.417 1.342 1.115 2.68 2.206 3.575 1.065 0.938 2.585 1.264 4.216 1.301 1.653 6e-3 3.424-0.242 5.297-0.505 1.897-0.288 3.887-0.418 5.843-0.556 1.958-0.169 3.973-0.27 5.947-0.541 1.971-0.266 3.94-0.636 5.655-1.415 1.717-0.771 3.127-1.996 4.259-3.6 1.119-1.598 2.037-3.497 2.754-5.452 0.396-0.938 0.716-2.038 1.076-3.057 0.319-0.971 0.628-2.041 0.926-3.073 1.21-4.168 2.276-8.404 3.239-12.586 0.949-4.186 1.87-8.312 2.619-12.33 0.742-4.02 1.415-7.913 1.918-11.622 0.493-3.709 0.873-7.227 1.069-10.48 0.395-6.503 0.017-11.968-1.1-15.591-0.541-1.821-1.311-3.104-1.893-3.936-0.31-0.406-0.609-0.672-0.782-0.873-0.18-0.192-0.274-0.293-0.274-0.293z"/>
		<path d="m222 345c1.128-1.065 1.145-2.502 0.952-3.849-0.111-0.684-0.244-1.373-0.426-2.063l-0.562-2.088c-0.39-1.405-0.794-2.838-1.055-4.355-0.257-1.511-0.433-3.115-0.15-4.829l0.585-3.544 2.097 2.942c1.037 1.455 1.879 2.891 2.752 4.319 0.864 1.426 1.724 2.833 2.616 4.201 0.446 0.683 0.912 1.348 1.409 1.978 0.482 0.642 0.993 1.259 1.561 1.795 0.284 0.267 0.568 0.54 0.882 0.759 0.307 0.24 0.643 0.41 0.989 0.578 0.35 0.141 0.726 0.266 1.121 0.276 0.401 0.052 0.805-0.029 1.229-0.12-0.34 0.255-0.733 0.487-1.177 0.599-0.442 0.13-0.915 0.136-1.385 0.103-0.463-0.059-0.925-0.178-1.352-0.352-0.436-0.165-0.85-0.37-1.238-0.608-1.561-0.955-2.822-2.22-3.975-3.525-1.15-1.311-2.165-2.708-3.12-4.116-0.956-1.4-1.851-2.853-2.742-4.162l2.682-0.602c-0.219 1.186-0.172 2.548-0.043 3.935 0.135 1.391 0.342 2.829 0.51 4.303 0.09 0.736 0.174 1.482 0.203 2.244 0.029 0.761 0.059 1.533-0.031 2.317-0.094 0.778-0.241 1.585-0.627 2.306-0.191 0.357-0.424 0.696-0.723 0.96-0.291 0.277-0.643 0.463-0.982 0.598z"/>
		<path d="m565 244c-0.254-0.28-0.64-0.355-0.985-0.465-0.178-0.059-0.357-0.083-0.533-0.208-0.054-0.039-0.055-0.149-6e-3 -0.186 0.039-0.046 0.082-0.074 0.124-0.096 0.085-0.056 0.173-0.082 0.26-0.124l0.013-6e-3 0.022 4e-3c5.143 0.921 10.313 1.619 15.472 2.561 5.145 0.96 10.31 2.267 15.116 4.563 4.805 2.291 9.16 5.448 12.962 9.19 3.762 3.789 6.893 8.188 9.313 12.938 2.444 4.74 4.211 9.804 5.446 14.96 0.634 2.583 1.147 5.164 1.535 7.813l1.122 7.756c0.175 1.296 0.4 2.577 0.519 3.889l0.366 3.934c0.234 2.624 0.506 5.246 0.709 7.871l0.327 7.881 0.151 3.941-0.056 3.946-0.149 7.891-0.606 7.873-0.31 3.935-0.548 3.912-1.118 7.817-1.644 7.726-0.827 3.86-1.082 3.798-2.175 7.589c-0.837 2.494-1.685 4.953-2.581 7.432-3.556 9.856-7.412 19.553-10.585 29.476-1.615 4.95-3.058 9.958-4.161 15.047-1.088 5.089-1.875 10.258-2.092 15.483-0.104-5.229 0.415-10.471 1.317-15.633 0.892-5.168 2.128-10.272 3.539-15.321 1.435-5.044 3.097-10.013 4.77-14.968l5.044-14.83c0.816-2.456 1.606-4.958 2.367-7.439l2.025-7.51 1.017-3.752 0.763-3.813 1.516-7.625 1.038-7.706 0.524-3.852 0.286-3.878 0.563-7.756 0.111-7.779 0.067-3.889-0.134-3.89-0.287-7.78c-0.189-2.583-0.445-5.16-0.663-7.741l-0.341-3.87c-0.109-1.29-0.334-2.587-0.487-3.882l-1.019-7.77c-0.333-2.524-0.806-5.082-1.385-7.578-0.563-2.51-1.265-4.982-2.095-7.408-0.798-2.438-1.777-4.809-2.876-7.119-2.203-4.619-5.093-8.905-8.6-12.627-3.548-3.678-7.681-6.847-12.258-9.174-2.289-1.159-4.658-2.188-7.115-2.998-2.455-0.814-4.966-1.483-7.502-2.072-5.079-1.151-10.239-2.054-15.319-3.297l0.034-2e-3c-0.082 0.034-0.175 0.057-0.248 0.1-0.085 0.041-0.145 0.086-0.105 0.12 0.121 0.097 0.317 0.152 0.485 0.214 0.342 0.128 0.731 0.228 0.969 0.524z"/>
</svg>